<svg xmlns="http://www.w3.org/2000/svg" version="1.1" xmlns:xlink="http://www.w3.org/1999/xlink" width="2000" height="75" viewBox="0 0 2000 75"><svg xml:space="preserve" width="2000" height="75" data-version="2" data-id="lg_geJ7jiHmG1q4qe8VbB" viewBox="0 0 448 75" x="0" y="0"><rect width="100%" height="100%" fill="transparent"></rect><ellipse fill="#3d9970" rx="140.58" ry="68" transform="matrix(.17 -.17 .17 .17 40.71 38.1)"></ellipse><ellipse fill="#ffdc00" rx="140.58" ry="68" transform="matrix(0 -.25 .25 0 41.53 37.52)"></ellipse><ellipse fill="#f4b41a" rx="140.58" ry="68" transform="matrix(-.18 -.18 .18 -.18 41.24 37.5)"></ellipse><path fill="#666" d="M111.65 38.5h.17q.3-1.14.64-2.24.35-1.1.85-2.47.44-1.22 1.07-2.8.63-1.59 1.34-3.22.7-1.64 1.37-3.05.67-1.4 1.22-2.24.67-1.03 1.46-1.54.79-.5 2.32-.5h2.75q1.09 0 1.84.32.74.33 1.06 1.55.23.9.44 2.64.21 1.75.35 4.83.15 3.09.24 7.93.08 4.84.08 11.96 0 .37-.25.63-.25.25-.61.25h-4.79q-.35 0-.61-.25-.25-.26-.25-.66v-9.4q0-3.87-.02-6.41t-.05-4.04q-.03-1.5-.1-2.32h-.12q-1.12 2.56-2.38 5.7-1.26 3.14-2.45 6.47-1.2 3.33-2.14 6.5-.28.94-.69 1.31-.41.37-1.85.37h-2.42q-1.24 0-1.65-.32-.41-.31-.7-1.36-.69-2.4-1.53-5.06-.84-2.67-1.74-5.24-.89-2.57-1.72-4.75-.83-2.17-1.48-3.62h-.12q-.17 2.48-.3 6.03-.12 3.55-.2 7.7-.07 4.16-.09 8.49 0 .37-.25.62-.25.24-.61.24h-4.31q-.35 0-.6-.25-.26-.26-.26-.66.02-11.19.45-17.86.44-6.68.94-8.95.33-1.49 1.19-1.94.85-.45 1.94-.45h3.4q1.15 0 1.69.41.53.41 1.31 1.58.46.7 1.1 2.08.64 1.39 1.34 3.08.69 1.69 1.31 3.34.62 1.64 1.02 2.86.42 1.24.77 2.41.36 1.16.63 2.3m31.83 12.58q-3.55 0-6.17-1.14-2.63-1.15-4.07-3.56-1.45-2.42-1.45-6.24 0-5.73 2.94-8.67 2.94-2.94 7.81-2.94 3.17 0 5.36 1.14 2.2 1.13 3.34 3.12 1.14 2 1.14 4.56 0 2.5-1.28 3.49-1.28.98-3.73.98h-9.01q.17 2.17 1.58 3.3 1.42 1.13 3.86 1.13 1.93 0 3.09-.57 1.17-.58 1.63-.92.4-.29.9-.27.4 0 1.15.16.74.15 1.48.57.52.28.52.76 0 .27-.1.78-.06.29-.21.85-.15.55-.38 1.04-.13.23-.4.44-.42.29-1.35.77-.94.49-2.55.85-1.62.37-4.1.37m-5.16-13.56h6.84q1.07 0 1.07-.99 0-1.49-.93-2.51-.94-1.02-2.8-1.02-2.04 0-3 1.31-.95 1.3-1.18 3.21m24.39 13.55q-2.79 0-4.75-1.37-1.97-1.38-2.99-3.8-1.01-2.43-1.01-5.6 0-4.18 1.48-6.77t4.17-3.81q2.7-1.22 6.38-1.22 1.26 0 2.09.13.83.12 1.18.23v-7.83q0-.51.21-.78.88-1.16 2.59-2.5.29-.21.52-.21.27 0 .52.21.91.69 1.53 1.3.62.61 1.06 1.2.21.27.21.78v28.55q0 .4-.28.68-.27.29-.69.29h-3.13q-.33 0-.6-.1-.26-.09-.49-.36l-1.3-1.68h-.15q-.27.42-.97 1.06-.71.64-2.04 1.12-1.33.48-3.54.48m2.04-5.37q1.89 0 2.97-.72 1.08-.71 1.54-1.8v-8.8q-.33-.21-1.11-.5-.78-.3-2.18-.3-2.61 0-3.91 1.7-1.3 1.7-1.3 4.58 0 2.98 1.09 4.41 1.09 1.43 2.9 1.43m22.42 5.37q-7.47 0-7.47-9.05l-.03-10.66q0-.51.21-.78.89-1.16 2.59-2.5.29-.21.52-.21.27 0 .53.21.9.69 1.52 1.3.62.61 1.06 1.2.21.27.21.78v10.07q0 4.56 3.61 4.56 1.79 0 2.86-1.25 1.07-1.25 1.07-3.39v-9.99q0-.51.21-.78.88-1.16 2.58-2.5.29-.21.52-.21.28 0 .53.21.9.69 1.52 1.3.62.61 1.06 1.2.21.27.21.78v18.22q0 .4-.27.68-.27.29-.69.29h-3.15q-.34 0-.6-.1-.26-.09-.5-.36l-1.3-1.68h-.14q-.34.48-1.04 1.11-.71.63-2.04 1.09-1.33.46-3.58.46m40.21-5.67q1.54 0 2.41-.31.87-.32 1.35-.78.49-.46.84-.92.34-.42.56-.63.22-.21.62-.3.33-.1 1.08-.13.74-.03 1.49-.03t1.04.04q.44.02.61.17.17.14.21.63.06.67.07 1.59.01.92-.03 1.6-.02.21-.07.35-.06.15-.22.44-.21.34-.82.98-.61.64-1.79 1.32-1.17.69-3.03 1.17-1.86.48-4.57.48-2.9 0-5.42-.74-2.51-.75-4.41-2.51-1.9-1.77-2.97-4.77-1.06-3-1.06-7.49 0-5 1.74-8.5 1.73-3.49 4.92-5.32t7.56-1.83q3.06 0 4.92.63 1.86.63 2.83 1.48.96.85 1.36 1.48.15.24.21.41.06.18.09.56.06.5.03 1.47t-.16 1.7q-.08.46-.27.61-.09.08-.3.15-.21.06-.63.06-.67 0-1.51-.05-.84-.06-1.26-.12-.5-.08-.73-.24-.24-.16-.47-.49-.37-.55-1.3-1.26-.92-.72-3.04-.72-2.98 0-4.92 2.3-1.93 2.3-1.93 7.44 0 5.13 2.03 7.61 2.03 2.47 4.94 2.47m22.81 5.68q-5.29 0-8.37-2.81-3.09-2.82-3.09-8.38 0-5.71 3.2-8.53 3.2-2.83 8.56-2.83 5.16 0 8.27 2.78 3.11 2.79 3.11 8.2 0 5.65-3.11 8.61-3.11 2.96-8.57 2.96m.21-5.08q2.31 0 3.49-1.44 1.17-1.44 1.17-4.92 0-3.32-1.18-4.67-1.19-1.36-3.52-1.36-2.25 0-3.54 1.46t-1.29 4.74q0 3.42 1.23 4.81Q247.99 46 250.4 46m34.87-8.83v12.26q0 .63-.27.88-.26.24-.89.24h-4.32q-.63 0-.9-.24-.26-.25-.26-.88V38.26q0-2.28-.97-3.33-.96-1.05-2.62-1.05-1.66 0-2.55.71-.89.71-1.38 1.81v13.03q0 .63-.26.88-.26.24-.89.24h-4.33q-.63 0-.89-.24-.26-.25-.26-.88V31.84q0-.5.21-.78.44-.59 1.06-1.19.62-.61 1.52-1.31.27-.21.53-.21.23 0 .52.21.88.7 1.51 1.33.63.63 1.12 1.3h.1q.36-.46 1.07-1.08.72-.62 2.01-1.1 1.29-.49 3.3-.49 1.98 0 3.76.8 1.79.8 2.93 2.69 1.15 1.89 1.15 5.16m9.76 13.91q-2.25 0-3.73-.38-1.48-.37-2.37-.91-.9-.53-1.4-.98-.38-.35-.08-.79l2.14-3.17q.46-.68 1.05-.09.61.59 1.65 1.15 1.04.55 2.59.55 1.38 0 2.28-.47.89-.47.89-1.37 0-.63-.4-1.03t-1.41-.82q-1-.42-2.81-1.07-2.67-.97-4.03-2.33-1.37-1.37-1.37-3.99 0-2.42 1.34-3.93 1.33-1.51 3.42-2.21 2.09-.71 4.36-.71 2.87 0 4.04.54 1.16.53 1.5.83.31.27.44.63.27.82.42 2.16.08.78-.4 1.03-.25.15-.8.31-.54.17-1.09.3-.54.12-.82.12-.08 0-.18-.05-.09-.05-.32-.26-.27-.27-.94-.63-.66-.36-1.81-.36-1.14 0-1.9.37-.77.37-.77 1.29 0 1.01.98 1.51.97.51 3.22 1.3 1.77.61 3.08 1.34 1.31.72 2.02 1.89.72 1.16.72 3.14 0 2.56-1.4 4.12-1.4 1.57-3.57 2.27t-4.54.7m19.21-.01q-7.48 0-7.48-9.05l-.02-10.66q0-.51.21-.78.88-1.16 2.58-2.5.3-.21.53-.21.27 0 .52.21.9.69 1.52 1.3.62.61 1.06 1.2.21.27.21.78v10.07q0 4.56 3.62 4.56 1.78 0 2.85-1.25t1.07-3.39v-9.99q0-.51.21-.78.88-1.16 2.58-2.5.3-.21.53-.21.27 0 .52.21.91.69 1.53 1.3.62.61 1.06 1.2.21.27.21.78v18.22q0 .4-.28.68-.27.29-.69.29h-3.15q-.33 0-.6-.1-.26-.09-.49-.36l-1.3-1.68h-.15q-.33.48-1.04 1.11-.7.63-2.03 1.09-1.34.46-3.58.46m24.22-2.1-4.39 2.02q-.44.19-.63.19-.18 0-.39-.15-.49-.34-1.11-1.65-.62-1.31-.62-4.04V21.03q0-.51.21-.78.89-1.16 2.59-2.5.29-.21.52-.21.27 0 .53.21.9.69 1.52 1.3.62.61 1.06 1.2.21.27.21.78v23.03q0 1.38.23 2.36t.55 1.57q.35.69-.28.98m11.87 2.1q-7.01 0-7.01-7.28v-9.85h-2.37q-.63 0-.87-.26-.25-.27-.25-.9V30.2q0-.63.25-.89.24-.26.87-.26h2.37v-3.38q0-.51.21-.78.88-1.15 2.58-2.5.3-.21.53-.21.25 0 .5.21.9.69 1.52 1.3.62.61 1.06 1.2.21.27.21.78v3.38h3.72q.63 0 .87.26t.24.89v2.58q0 .63-.24.9-.24.26-.87.26h-3.72v8.69q0 3.36 2.44 3.36.38 0 .69-.07.32-.08.55-.16.44-.17.62-.13.18.05.32.47l1.22 3.25q.19.53-.25.76-.32.14-1.52.55-1.21.41-3.67.41m12.62.01q-3.09 0-4.9-1.73-1.82-1.73-1.82-4.78 0-1.57.58-2.93.58-1.35 2.01-2.39 1.44-1.04 4.03-1.67 2.6-.63 6.63-.73 0-1.91-.96-2.75-.95-.84-2.86-.84-1.72 0-2.82.58-1.09.59-1.36.8-.29.25-.71.19-.57-.08-1.21-.29-.64-.21-1.38-.49-.1-.04-.23-.13-.12-.1-.14-.29 0-.1.02-.26t.1-.58q.09-.42.25-1.03.17-.62.32-.96.19-.36.63-.67.35-.3 2.16-.95 1.81-.65 5.23-.65 9.43 0 9.43 9.18v11.88q0 .4-.22.68-.23.29-.75.29h-3.15q-.34 0-.6-.1-.26-.09-.49-.36l-1.3-1.68h-.15q-.97 1.4-2.59 2.03-1.63.63-3.75.63m2.31-4.87q1.93 0 2.92-.99.98-.98 1.26-2.03v-2.33q-2.92 0-4.38.45t-1.94 1.17q-.49.73-.49 1.57 0 1.22.76 1.69t1.87.47m35.24-9.04v12.26q0 .63-.26.88-.27.24-.9.24h-4.32q-.63 0-.89-.24-.27-.25-.27-.88V38.26q0-2.28-.96-3.33-.97-1.05-2.63-1.05t-2.55.71q-.89.71-1.37 1.81v13.03q0 .63-.27.88-.26.24-.89.24h-4.32q-.63 0-.89-.24-.27-.25-.27-.88V31.84q0-.5.21-.78.44-.59 1.06-1.19.62-.61 1.53-1.31.27-.21.52-.21.23 0 .52.21.89.7 1.52 1.33.63.63 1.11 1.3h.1q.36-.46 1.08-1.08.71-.62 2-1.1 1.29-.49 3.31-.49 1.97 0 3.76.8 1.78.8 2.92 2.69 1.15 1.89 1.15 5.16m14.48-8.64q2.5 0 3.64.41 1.13.41 1.42.64.47.3.72.76.14.23.33.8.19.56.28 1.23.1.53.02.75-.09.22-.53.54-.5.33-1.1.59-.6.27-.98.37-.31.08-.48.04-.17-.04-.46-.25-.34-.23-.95-.51-.6-.29-1.68-.29-1.36 0-2.59.68-1.23.67-1.99 2.01-.77 1.34-.77 3.36 0 3.02 1.59 4.68Q413.03 46 415.7 46q1.36 0 2.27-.28.9-.29 1.42-.58.42-.23.64-.12.22.12.35.41l1.53 3.47q.23.54-.25.78-.78.39-2.56.9-1.79.5-4.41.5-5.27 0-8.42-2.8-3.15-2.8-3.15-8.39 0-3.57 1.45-6.11 1.45-2.54 4.11-3.89 2.67-1.36 6.3-1.36"></path><path fill="#666" d="M424.12 60.65q-.77 0-1.17-.16-.4-.16-.67-.39-.55-.52-1.18-1.47-.15-.23-.31-.53-.17-.31-.17-.52 0-.23.1-.42.11-.19.26-.36.33-.44.81-.91.49-.47.82-.74.23-.19.38-.25.15-.05.25-.05.11 0 .32.04.21.05.63.05 1.45 0 3.02-.95 1.58-.94 3.11-3.55-1.6-1.47-3.14-3.68-1.54-2.22-2.78-4.81-1.24-2.59-1.99-5.18-.74-2.58-.74-4.76 0-.46.23-.74.96-1.19 2.75-2.5.31-.21.57-.21.27 0 .56.21.97.7 1.63 1.31.66.6 1.12 1.19.23.28.23.78v-.08q0 1.65.4 3.5t1.1 3.6q.69 1.76 1.55 3.17.86 1.42 1.78 2.26h.11q.42-.8.93-2.3.52-1.5.98-3.34.46-1.83.76-3.65.29-1.82.29-3.22v.06q0-.5.21-.78.48-.59 1.13-1.19.65-.61 1.58-1.31.29-.21.54-.21.3 0 .55.21.94.7 1.6 1.31.65.6 1.11 1.19.21.28.21.76-.02 1.91-.74 4.99-.71 3.07-2.08 6.66-1.36 3.59-3.31 7.03-2.92 5.19-6.3 7.56-3.38 2.38-7.04 2.38m19.47-28.66v.06-.02zm-21.92.06v-.06.02z"></path></svg></svg>