<?xml version="1.0" encoding="UTF-8"?>
<svg id="Layer_2" data-name="Layer 2" xmlns="http://www.w3.org/2000/svg" xmlns:xlink="http://www.w3.org/1999/xlink" viewBox="0 0 94.54 21.4">
  <defs>
    <style>
      .cls-1, .cls-2 {
        fill: none;
      }

      .cls-3 {
        fill: #010101;
      }

      .cls-4 {
        fill: #006d3c;
      }

      .cls-5 {
        fill: url(#radial-gradient);
      }

      .cls-6 {
        fill: #fff;
        filter: url(#drop-shadow-1);
      }

      .cls-7 {
        opacity: .2;
      }

      .cls-2 {
        opacity: .7;
        stroke: #fede00;
        stroke-miterlimit: 10;
        stroke-width: .1px;
      }

      .cls-8 {
        clip-path: url(#clippath);
      }

      .cls-9 {
        fill: #fede00;
      }
    </style>
    <radialGradient id="radial-gradient" cx="9.92" cy="10.7" fx="9.92" fy="10.7" r="10.31" gradientUnits="userSpaceOnUse">
      <stop offset="0" stop-color="#00ad4d"/>
      <stop offset="1" stop-color="#006d3c"/>
    </radialGradient>
    <clipPath id="clippath">
      <polygon class="cls-1" points="0 11.67 4.02 7.2 6.06 9.43 13.46 5.06 13.46 7.16 15.82 6.22 15.82 15.5 8.65 21.36 0 21.36 0 11.67"/>
    </clipPath>
    <filter id="drop-shadow-1" x="2.62" y="5.06" width="14.45" height="10.85" filterUnits="userSpaceOnUse">
      <feOffset dx="0" dy="1.6"/>
      <feGaussianBlur result="blur" stdDeviation=".5"/>
      <feFlood flood-color="#010101" flood-opacity=".3"/>
      <feComposite in2="blur" operator="in"/>
      <feComposite in="SourceGraphic"/>
    </filter>
  </defs>
  <g id="Layer_1-2" data-name="Layer 1">
    <g>
      <g>
        <rect class="cls-5" x=".02" width="19.8" height="21.4" rx="2.26" ry="2.26"/>
        <g class="cls-7">
          <g class="cls-8">
            <rect class="cls-3" x=".02" width="19.8" height="21.4" rx="2.26" ry="2.26"/>
          </g>
        </g>
        <rect class="cls-2" x="1.17" y="1.24" width="17.5" height="18.91" rx="1.86" ry="1.86"/>
        <g>
          <polygon class="cls-9" points="5.56 8.53 5.56 15.6 4.12 15.6 4.12 7.22 4.19 7.16 5.56 8.53"/>
          <polygon class="cls-6" points="15.55 5.07 14.15 6.47 7.81 12.81 4.12 9.12 4.12 7.22 4.19 7.16 5.56 8.53 7.81 10.78 13.54 5.06 15.54 5.06 15.55 5.07"/>
          <polygon class="cls-9" points="15.82 6.22 15.82 11.12 14.39 11.12 14.39 9.68 9.9 14.17 14.39 14.17 14.39 12.59 15.82 12.59 15.82 15.6 6.44 15.6 7.87 14.17 14.39 7.65 15.82 6.22"/>
        </g>
      </g>
      <g>
        <path class="cls-4" d="M23.75,9.19V1.44h1.91l2.14,5.21h.1l2.15-5.21h1.91v7.75h-1.5v-5.18h-.09l-1.97,4.74h-1.08l-1.98-4.74h-.09v5.18h-1.5Z"/>
        <path class="cls-4" d="M38.54,9.19h-5.13V1.44h5.13v1.39h-3.51v1.81h3.31v1.28h-3.31v1.89h3.51v1.39Z"/>
        <path class="cls-4" d="M42.86,1.43c.58,0,1.09.08,1.54.25.45.17.83.42,1.14.75.31.33.55.73.71,1.2.16.47.24,1.01.24,1.62s-.08,1.19-.24,1.68c-.16.49-.4.9-.71,1.23-.31.33-.69.59-1.14.76-.45.17-.97.26-1.55.26h-3.05V1.43h3.05ZM41.43,7.8h1.17c.72,0,1.27-.21,1.66-.64.39-.43.58-1.05.58-1.88,0-.39-.05-.74-.15-1.04-.1-.31-.25-.56-.44-.78-.19-.21-.43-.37-.7-.48-.28-.11-.59-.16-.94-.16h-1.17v4.98Z"/>
        <path class="cls-4" d="M49.22,6.35c0,.24.04.46.11.66.07.2.18.37.31.5.14.14.31.25.51.32.2.08.43.11.69.11s.49-.04.7-.11c.2-.08.37-.18.51-.32.14-.14.24-.31.31-.5.07-.2.11-.42.11-.66V1.44h1.62v5.08c0,.43-.08.82-.23,1.17-.15.35-.37.66-.65.91-.28.25-.62.45-1.02.59-.4.14-.85.21-1.35.21s-.94-.07-1.34-.21c-.4-.14-.74-.33-1.02-.59-.28-.25-.5-.55-.65-.91-.15-.35-.23-.74-.23-1.17V1.44h1.62v4.91Z"/>
        <path class="cls-4" d="M24.45,15.54v1.1c0,.85.18,1.48.55,1.9.37.42.87.63,1.52.63.58,0,1.03-.15,1.35-.46.32-.3.48-.68.48-1.12h.86c0,.27-.05.53-.16.8-.11.27-.27.52-.48.77s-.5.44-.86.58c-.36.15-.78.22-1.24.22-.89,0-1.6-.29-2.12-.85s-.78-1.39-.78-2.46v-1.13c0-1.06.26-1.88.79-2.47.52-.59,1.23-.88,2.12-.88.44,0,.84.07,1.2.22.36.15.64.34.86.59s.38.51.5.8c.12.29.17.59.17.89h-.86c0-.45-.17-.84-.5-1.19-.34-.35-.79-.52-1.37-.52-.62,0-1.11.22-1.48.67-.37.44-.55,1.08-.55,1.92Z"/>
        <path class="cls-4" d="M30.28,16.66v-1.12c0-1.05.27-1.87.81-2.48s1.26-.9,2.16-.9,1.62.3,2.16.9c.54.6.8,1.42.8,2.48v1.12c0,1.05-.27,1.86-.81,2.44s-1.26.86-2.17.86-1.63-.29-2.16-.86-.79-1.39-.79-2.44ZM31.15,15.54v1.12c0,.42.05.79.16,1.11.11.33.26.59.45.79.19.2.41.35.66.45.25.1.52.15.82.15s.57-.05.83-.15c.25-.1.48-.25.67-.45.19-.2.34-.46.45-.79s.16-.7.16-1.11v-1.12c0-.83-.19-1.46-.58-1.91-.39-.45-.89-.67-1.52-.67s-1.12.22-1.5.67c-.39.44-.58,1.08-.58,1.92Z"/>
        <path class="cls-4" d="M38.5,19.81h-.88v-7.49h.88l3.83,5.99h.04v-5.99h.87v7.49h-.87l-3.84-5.99h-.03v5.99Z"/>
        <path class="cls-4" d="M44.38,17.8h.88c.04.4.23.73.55.98.33.26.78.38,1.34.38.53,0,.96-.12,1.28-.37.32-.25.48-.58.48-1,0-.31-.1-.57-.3-.76-.2-.2-.51-.35-.94-.46l-1.34-.36c-.5-.13-.92-.35-1.24-.67-.32-.32-.49-.74-.49-1.27,0-.45.12-.84.37-1.17.25-.33.56-.58.94-.73s.8-.23,1.24-.23c.32,0,.63.04.92.13.29.08.56.21.81.37.25.16.45.38.6.67.15.28.23.6.24.96h-.88c-.04-.39-.21-.71-.5-.96-.29-.24-.69-.37-1.21-.37-.49,0-.88.11-1.19.34-.31.22-.46.54-.46.94,0,.58.35.96,1.06,1.14l1.31.35c.63.17,1.11.42,1.44.73.33.31.5.74.5,1.3,0,.71-.26,1.26-.78,1.65s-1.18.58-1.99.58c-.46,0-.87-.07-1.23-.2-.36-.13-.63-.31-.83-.52s-.35-.45-.45-.69c-.1-.24-.15-.49-.16-.75Z"/>
        <path class="cls-4" d="M51.9,12.32v4.89c0,.6.17,1.07.52,1.43.35.36.82.53,1.42.53s1.06-.18,1.41-.53c.35-.36.53-.83.53-1.43v-4.89h.87v4.89c0,.82-.26,1.49-.78,2-.52.51-1.2.76-2.04.76-.55,0-1.04-.12-1.47-.35-.43-.23-.76-.56-.99-.98-.23-.42-.35-.91-.35-1.45v-4.87h.87Z"/>
        <path class="cls-4" d="M62.65,19.01v.8h-4.38v-7.49h.88v6.69h3.49Z"/>
        <path class="cls-4" d="M65.92,19.81h-.87v-6.7h-2.3v-.79h5.46v.79h-2.29v6.7Z"/>
        <path class="cls-4" d="M69.25,19.81h-.9l2.7-7.49h.85l2.69,7.49h-.95l-.78-2.31h-2.83l-.78,2.31ZM71.47,13.4h-.03l-1.16,3.39h2.34l-1.16-3.39Z"/>
        <path class="cls-4" d="M76.41,19.81h-.88v-7.49h.88l3.83,5.99h.04v-5.99h.87v7.49h-.87l-3.84-5.99h-.03v5.99Z"/>
        <path class="cls-4" d="M83.44,15.54v1.1c0,.85.18,1.48.55,1.9s.87.63,1.52.63c.58,0,1.03-.15,1.35-.46.32-.3.48-.68.48-1.12h.86c0,.27-.05.53-.16.8-.11.27-.27.52-.48.77-.21.24-.5.44-.86.58-.36.15-.78.22-1.24.22-.89,0-1.6-.29-2.12-.85-.52-.57-.78-1.39-.78-2.46v-1.13c0-1.06.26-1.88.79-2.47s1.23-.88,2.12-.88c.44,0,.84.07,1.2.22.36.15.64.34.86.59s.38.51.5.8c.12.29.17.59.17.89h-.86c0-.45-.17-.84-.5-1.19-.34-.35-.79-.52-1.37-.52-.62,0-1.11.22-1.48.67-.37.44-.55,1.08-.55,1.92Z"/>
        <path class="cls-4" d="M92.03,19.81h-.87v-3.28l-2.5-4.21h1l1.91,3.35h.05l1.91-3.35h1.01l-2.51,4.21v3.28Z"/>
      </g>
    </g>
  </g>
</svg>