<svg xmlns="http://www.w3.org/2000/svg" version="1.1" xmlns:xlink="http://www.w3.org/1999/xlink" width="2000" height="68" viewBox="0 0 2000 68"><svg xml:space="preserve" width="2000" height="68" data-version="2" data-id="lg_jV8y6JHq22Z6S88Fvd" viewBox="0 0 587 68" x="0" y="0"><rect width="100%" height="100%" fill="transparent"></rect><rect width="495" height="38.42" x="-247.5" y="-19.21" fill="none" rx="0" ry="0" transform="translate(334 33.73)"></rect><path fill="#126800" d="M94.94 43.91h-7.07v-23.4h7.07l5.85 11.36 5.71-11.36h7.07v23.4h-7.07V31.67l-4.32 8.16h-2.89l-4.35-8.16zm37.3 0h-16.42v-23.4h16.42v5.17h-8.16v4.15h7.45v4.28h-7.45v4.46h8.16zm9.35 0h-7.79v-23.4h8.13q5.1 0 8.31 1.47 3.22 1.46 4.73 4.04 1.51 2.59 1.51 6.02 0 5.61-3.69 8.74t-11.2 3.13m-.27-17.45v11.5h2.17q2.72 0 4.05-1.65t1.33-4.34q0-2.48-1.28-3.99-1.27-1.52-4.1-1.52zm27.37 17.99q-3.4 0-5.99-1.22-2.58-1.23-4.01-3.52-1.43-2.3-1.43-5.49V20.51h7.55v13.37q0 2.27 1.11 3.35 1.1 1.07 2.9 1.07 1.91 0 2.91-1.09t1-2.99V20.51h7.65v13.71q0 3.02-1.49 5.33-1.5 2.32-4.13 3.61-2.64 1.29-6.07 1.29m29.51 0q-3.67 0-6.41-1.48t-4.25-4.16q-1.51-2.69-1.51-6.26 0-3.67 1.58-6.49 1.58-2.83 4.35-4.44 2.77-1.62 6.38-1.62 4.01 0 6.29 1.57l-.92 5.4q-.99-.47-2.06-.69t-2.02-.22q-2.79 0-4.39 1.66-1.6 1.67-1.6 4.63 0 2.78 1.55 4.37 1.55 1.58 4.3 1.58 1.09 0 1.99-.21.9-.2 2.23-.75l.95 5.38q-2.96 1.73-6.46 1.73" paint-order="stroke"></path><path fill="#126800" d="M217.14 44.45q-3.71 0-6.53-1.56-2.82-1.57-4.4-4.32-1.58-2.76-1.58-6.33 0-3.6 1.58-6.35 1.58-2.76 4.4-4.32 2.82-1.57 6.53-1.57 3.7 0 6.53 1.55 2.82 1.55 4.4 4.3 1.58 2.76 1.58 6.39 0 3.57-1.58 6.33-1.58 2.75-4.4 4.32-2.83 1.56-6.53 1.56m0-6.19q2.14 0 3.52-1.66 1.37-1.67 1.37-4.39 0-1.84-.62-3.23-.63-1.39-1.74-2.19-1.1-.8-2.57-.8-2.14 0-3.5 1.72-1.36 1.71-1.36 4.5 0 2.72 1.36 4.39 1.36 1.66 3.54 1.66m20.02 5.65h-6.25v-23.4h6.8l9.18 12.41V20.51h6.25v23.4h-6.8l-9.18-11.9zm25.37.54q-2.14 0-4.35-.53-2.21-.52-3.74-1.41l1.22-5.54q1.97 1.05 3.69 1.38 1.72.32 3.18.32 1.36 0 2.06-.44.69-.44.69-1.19 0-.68-.78-1.07t-2.02-.73-2.64-.8q-1.39-.46-2.63-1.23-1.24-.76-2.03-2.04-.78-1.27-.78-3.21 0-2.45 1.19-4.23 1.19-1.79 3.4-2.76t5.2-.97q2.01 0 3.93.53t3.08 1.41l-1.16 5q-1.73-.71-3.11-1.04-1.38-.32-2.6-.32-1.43 0-2.18.41-.74.41-.74 1.09 0 .64.78 1.05t2 .78q1.23.38 2.62.85 1.4.48 2.62 1.26t2.01 2.04q.78 1.26.78 3.16 0 3.95-2.57 6.09t-7.12 2.14m21.45 0q-3.4 0-5.98-1.22-2.59-1.23-4.01-3.52-1.43-2.3-1.43-5.49V20.51h7.55v13.37q0 2.27 1.1 3.35 1.11 1.07 2.91 1.07 1.9 0 2.91-1.09 1-1.09 1-2.99V20.51h7.65v13.71q0 3.02-1.5 5.33-1.49 2.32-4.13 3.61-2.63 1.29-6.07 1.29m28.77-.54h-15.3v-23.4h7.34v18.02h8.3zm13.02 0h-7.92V25.89h-5.27v-5.38h18.46v5.38h-5.27zm12.17 0h-7.99l6.46-23.4h11.02l6.76 23.4h-8.33l-.88-4.49h-6.05zM341.95 25l-2.31 10.24h4.52zm18.84 18.91h-6.26v-23.4h6.8l9.18 12.41V20.51h6.26v23.4h-6.8l-9.18-11.9zm29.41.54q-3.67 0-6.41-1.48t-4.25-4.16q-1.51-2.69-1.51-6.26 0-3.67 1.58-6.49 1.58-2.83 4.35-4.44 2.77-1.62 6.37-1.62 4.02 0 6.29 1.57l-.91 5.4q-.99-.47-2.06-.69t-2.02-.22q-2.79 0-4.39 1.66-1.6 1.67-1.6 4.63 0 2.78 1.55 4.37 1.55 1.58 4.3 1.58 1.09 0 1.99-.21.9-.2 2.23-.75l.95 5.38q-2.96 1.73-6.46 1.73" paint-order="stroke"></path><path fill="#126800" d="M409.34 43.91h-7.31v-6.5l-6.73-16.9h7.31l3.3 10.34 3.23-10.34h7.27l-7.07 16.9zm18.91.54q-2.14 0-4.35-.53-2.21-.52-3.74-1.41l1.23-5.54q1.97 1.05 3.69 1.38 1.71.32 3.17.32 1.36 0 2.06-.44t.7-1.19q0-.68-.78-1.07-.79-.39-2.03-.73t-2.63-.8q-1.4-.46-2.64-1.23-1.24-.76-2.02-2.04-.78-1.27-.78-3.21 0-2.45 1.19-4.23 1.19-1.79 3.4-2.76t5.2-.97q2.01 0 3.93.53t3.07 1.41l-1.15 5q-1.74-.71-3.11-1.04-1.38-.32-2.6-.32-1.43 0-2.18.41t-.75 1.09q0 .64.78 1.05.79.41 2.01.78 1.22.38 2.62.85 1.39.48 2.62 1.26 1.22.78 2 2.04t.78 3.16q0 3.95-2.56 6.09-2.57 2.14-7.13 2.14m26.92-.54h-16.42v-23.4h16.42v5.17h-8.16v4.15h7.45v4.28h-7.45v4.46h8.16zm19.28.54q-2.45 0-4.05-.73-1.59-.73-2.55-2.02-.95-1.3-1.42-3.03-.48-1.73-.65-3.74h-1.6v8.98h-7.44v-23.4h9.62q5.57 0 8.04 1.96 2.46 1.95 2.46 5.29 0 2-1.08 3.58-1.09 1.58-3.51 2.64.14.75.24 1.22.1.48.31 1.06.44 1.22 1.1 1.7.67.47 1.82.47.75 0 1.5-.2l.41 5.57q-.68.28-1.45.46-.76.19-1.75.19m-10.27-18.87v4.69h1.29q2.52 0 3.56-.56 1.03-.56 1.03-1.92 0-1.16-.85-1.68-.85-.53-2.68-.53zm27.75 18.33h-8.67l-6.94-23.4h8.02l3.61 14.59 3.6-14.59h7.69zm15.16 0h-7.68v-23.4h7.68zm13.44.54q-3.67 0-6.41-1.48t-4.25-4.16q-1.51-2.69-1.51-6.26 0-3.67 1.58-6.49 1.58-2.83 4.35-4.44 2.77-1.62 6.38-1.62 4.01 0 6.29 1.57l-.92 5.4q-.99-.47-2.06-.69t-2.02-.22q-2.79 0-4.39 1.66-1.6 1.67-1.6 4.63 0 2.78 1.55 4.37 1.55 1.58 4.3 1.58 1.09 0 1.99-.21.9-.2 2.23-.75l.95 5.38q-2.96 1.73-6.46 1.73m23.82-.54h-16.42v-23.4h16.42v5.17h-8.16v4.15h7.45v4.28h-7.45v4.46h8.16zm8.71.54q-2.14 0-4.35-.53-2.21-.52-3.74-1.41l1.22-5.54q1.97 1.05 3.69 1.38 1.72.32 3.18.32 1.36 0 2.06-.44.69-.44.69-1.19 0-.68-.78-1.07t-2.02-.73-2.64-.8q-1.39-.46-2.63-1.23-1.24-.76-2.03-2.04-.78-1.27-.78-3.21 0-2.45 1.19-4.23 1.19-1.79 3.4-2.76t5.2-.97q2.01 0 3.93.53t3.08 1.41l-1.16 5q-1.73-.71-3.11-1.04-1.38-.32-2.6-.32-1.43 0-2.18.41-.74.41-.74 1.09 0 .64.78 1.05t2 .78q1.23.38 2.62.85 1.4.48 2.62 1.26t2.01 2.04q.78 1.26.78 3.16 0 3.95-2.57 6.09t-7.12 2.14" paint-order="stroke"></path><path fill="#126800" d="M19.816 29.88a14.642 14.642 0 1 0 9.388 27.74 14.642 14.642 0 1 0-9.388-27.74m22.37-24.87a14.642 14.642 0 1 0 9.388 27.739 14.642 14.642 0 1 0-9.388-27.738"></path><path fill="#126800" d="M52.566 35.25a14.642 14.642 0 1 0 9.388 27.74 14.642 14.642 0 1 0-9.388-27.74"></path></svg></svg>