<svg xmlns="http://www.w3.org/2000/svg" version="1.1" xmlns:xlink="http://www.w3.org/1999/xlink" width="2000" height="63" viewBox="0 0 2000 63"><svg xml:space="preserve" width="2000" height="63" data-version="2" data-id="lg_yqg2S2aGRV3c6FBrQC" viewBox="0 0 585 63" x="0" y="0"><rect width="100%" height="100%" fill="transparent"></rect><rect width="493" height="50.85" x="-246.5" y="-25.425" fill="none" rx="0" ry="0" transform="translate(333.5 31.42)"></rect><path fill="#303030" d="M93.16 45.06h-3.87v-31.5h6.62l7.11 25.65h.49l7.11-25.65h6.61v31.5h-3.91l.18-26.73h-.63l-7.38 26.73h-4.46l-7.42-26.73h-.58zm27.68-31.5h15.75v3.6H124.8v10.71q1.48-.63 3.35-.97 1.86-.33 3.8-.42 1.93-.09 3.51.18v3.42l-.36.27q-1.22-.36-3.04-.36t-3.75.31q-1.94.32-3.51 1.04v10.12h11.79v3.6h-15.75zm26.05 0h-8.05v31.5h8.05q3.78 0 6.77-1.69 3-1.68 4.73-5.17t1.73-8.89q0-5.44-1.73-8.91-1.73-3.46-4.73-5.15-2.99-1.69-6.77-1.69m-.09 27.81h-4V17.25h4q4.14 0 6.71 3.11 2.56 3.1 2.56 8.95 0 5.72-2.54 8.89t-6.73 3.17m36.04-6.66V13.56h-4V34.4q0 2.38-.83 4t-2.27 2.48q-1.45.85-3.33.85-1.9 0-3.38-.85-1.49-.86-2.32-2.48t-.83-4V13.56h-4v21.15q0 3.15.94 5.24.94 2.1 2.5 3.33 1.55 1.24 3.42 1.76 1.86.52 3.67.52 1.8 0 3.62-.52t3.37-1.76q1.55-1.23 2.5-3.33.94-2.09.94-5.24m11.79-5.41q0-4.14 1.13-7.2 1.12-3.06 3.04-5.06 1.91-2 4.34-2.99t5.04-.99q2.52 0 4.16.54t2.36 1.26v3.87h-.72q-.76-.9-2.16-1.42-1.39-.52-3.46-.52-2.79 0-4.97 1.44-2.19 1.44-3.42 4.23-1.24 2.79-1.24 6.84t1.24 6.84q1.23 2.79 3.39 4.23t4.95 1.44q2.07 0 3.49-.52 1.42-.51 2.18-1.41h.72v3.87q-.72.67-2.36 1.23-1.64.57-4.25.57-2.66 0-5.09-.99t-4.32-3q-1.89-2-2.97-5.06t-1.08-7.2m21.11.01q0-5.76 1.85-9.34 1.84-3.57 4.83-5.26t6.5-1.69q3.52 0 6.51 1.69t4.83 5.26q1.85 3.58 1.85 9.34 0 5.72-1.85 9.32-1.84 3.6-4.83 5.28-2.99 1.69-6.51 1.69-3.51 0-6.5-1.69-2.99-1.68-4.83-5.28-1.85-3.6-1.85-9.32m4.1 0q0 4.19 1.19 6.98t3.26 4.16 4.63 1.37q2.52 0 4.59-1.37t3.31-4.16 1.24-6.98q0-4.23-1.26-7-1.26-2.76-3.33-4.14-2.07-1.37-4.55-1.37-2.56 0-4.63 1.4-2.07 1.39-3.26 4.16t-1.19 6.95m41.53 9.72-.18-25.47h3.92v31.5h-5.45l-10.85-25.33h-.58l.09 25.33h-3.87v-31.5h5.44l10.89 25.47zm24.7-1.45q0 2.48-1.14 4.28-1.15 1.8-3.18 2.76-2.02.97-4.77.97-2.16 0-3.98-.52-1.82-.51-3.1-1.23-1.29-.72-1.92-1.22v-3.87h.59q1.39 1.22 3.62 2.21t4.48.99q1.44 0 2.68-.43 1.23-.43 1.98-1.37.74-.95.74-2.34 0-1.76-.9-2.91-.9-1.14-2.75-2.27l-5.44-3.42q-1.26-.81-2.59-1.87-1.33-1.05-2.2-2.61-.88-1.55-.88-3.8 0-2.56 1.17-4.32 1.17-1.75 3.15-2.65t4.45-.9q2.21 0 3.87.45 1.67.45 2.84 1.12 1.17.68 1.84 1.35v3.87H284q-1.12-1.3-3.19-2.23-2.07-.92-4.64-.92-2.11 0-3.48 1.01-1.38 1.02-1.38 2.91 0 1.75 1.22 3.01t2.92 2.34l5.05 3.15q1.52.95 2.78 2.12t2.03 2.7q.76 1.53.76 3.64m22.59-2.87V13.56h-4V34.4q0 2.38-.83 4t-2.27 2.48q-1.44.85-3.34.85-1.89 0-3.37-.85-1.48-.86-2.32-2.48-.83-1.62-.83-4V13.56h-4.01v21.15q0 3.15.95 5.24.94 2.1 2.5 3.33 1.55 1.24 3.42 1.76t3.66.52q1.8 0 3.63-.52 1.82-.52 3.37-1.76 1.55-1.23 2.5-3.33.94-2.09.94-5.24m3.07 10.35v-31.5h3.96v27.9h10.66v3.6zm14.4-31.5h17.91v3.65h-6.93v27.85h-3.96V17.21h-7.02zm19.44 31.5v-31.5h3.96v31.5zm24.48-6.03-.18-25.47h3.91v31.5h-5.44l-10.85-25.33h-.58l.09 25.33h-3.87v-31.5h5.44l10.89 25.47zm6.07-9.73q0-5.62 2-9.2 2.01-3.58 5.36-5.31t7.4-1.73q2.21 0 3.96.49 1.76.5 2.99 1.15 1.24.65 1.78 1.24v4.05h-.72q-.67-.86-1.82-1.6t-2.7-1.19-3.58-.45q-3.24 0-5.62 1.46-2.39 1.46-3.67 4.25t-1.28 6.8q0 3.96 1.23 6.77 1.24 2.81 3.51 4.32 2.28 1.51 5.25 1.51 2.11 0 3.6-.61 1.48-.61 2.07-1.28v-9.41H384.9v-3.51h14.71v14.81q-1.93 1.93-4.43 2.81t-5.42.88q-2.75 0-5.2-.97t-4.37-2.95q-1.91-1.98-2.99-5.06t-1.08-7.27m53.87 8.28q0 2.48-1.15 4.28t-3.17 2.76q-2.03.97-4.77.97-2.16 0-3.99-.52-1.82-.51-3.1-1.23t-1.91-1.22v-3.87h.58q1.4 1.22 3.62 2.21 2.23.99 4.48.99 1.44 0 2.68-.43t1.98-1.37q.74-.95.74-2.34 0-1.76-.9-2.91-.9-1.14-2.74-2.27l-5.45-3.42q-1.26-.81-2.59-1.87-1.32-1.05-2.2-2.61-.88-1.55-.88-3.8 0-2.56 1.17-4.32 1.17-1.75 3.15-2.65t4.46-.9q2.2 0 3.87.45 1.66.45 2.83 1.12 1.17.68 1.85 1.35v3.87h-.63q-1.13-1.3-3.2-2.23-2.07-.92-4.63-.92-2.12 0-3.49 1.01-1.37 1.02-1.37 2.91 0 1.75 1.21 3.01 1.22 1.26 2.93 2.34l5.04 3.15q1.53.95 2.79 2.12t2.02 2.7q.77 1.53.77 3.64m2.16-24.02h15.75v3.6h-11.79v10.71q1.48-.63 3.35-.97 1.87-.33 3.8-.42 1.94-.09 3.51.18v3.42l-.36.27q-1.21-.36-3.04-.36-1.82 0-3.75.31-1.94.32-3.51 1.04v10.12h11.79v3.6h-15.75zm17.99 31.5.09-31.5h3.87v31.5zm1.48-31.5h9.23q2.65 0 4.72 1.06t3.26 3.17q1.2 2.12 1.2 5.27 0 3.06-1.24 5.17-1.24 2.12-3.26 3.22-2.03 1.1-4.41 1.1h-9.5zm2.21 3.6v11.93h6.7q1.53 0 2.75-.68 1.21-.67 1.95-2 .75-1.33.75-3.17 0-2.03-.75-3.38-.74-1.35-1.95-2.02-1.22-.68-2.75-.68zm12.15 27.9-6.75-14.71 3.73-.5 7.07 14.49v.72zm4.28-30.69v-.81h4.05l6.48 27.72h2.97l6.48-27.72h4.1v.81l-7.65 30.65-8.82.04zm25.56 30.69v-31.5h3.96v31.5zm6.25-15.76q0-4.14 1.12-7.2 1.13-3.06 3.04-5.06t4.34-2.99 5.04-.99q2.52 0 4.16.54 1.65.54 2.37 1.26v3.87h-.72q-.77-.9-2.16-1.42-1.4-.52-3.47-.52-2.79 0-4.97 1.44t-3.42 4.23-1.24 6.84 1.24 6.84 3.4 4.23 4.95 1.44q2.07 0 3.48-.52 1.42-.51 2.19-1.41h.72v3.87q-.72.67-2.37 1.23-1.64.57-4.25.57-2.65 0-5.08-.99t-4.32-3q-1.89-2-2.97-5.06t-1.08-7.2m22.42-15.74h15.75v3.6h-11.79v10.71q1.48-.63 3.35-.97 1.87-.33 3.8-.42 1.94-.09 3.51.18v3.42l-.36.27q-1.21-.36-3.04-.36-1.82 0-3.75.31-1.94.32-3.51 1.04v10.12h11.79v3.6h-15.75zm35.32 24.02q0 2.48-1.15 4.28-1.14 1.8-3.17 2.76-2.02.97-4.77.97-2.16 0-3.98-.52-1.82-.51-3.11-1.23-1.28-.72-1.91-1.22v-3.87h.59q1.39 1.22 3.62 2.21t4.48.99q1.44 0 2.67-.43 1.24-.43 1.98-1.37.75-.95.75-2.34 0-1.76-.9-2.91-.9-1.14-2.75-2.27l-5.44-3.42q-1.26-.81-2.59-1.87-1.33-1.05-2.21-2.61-.87-1.55-.87-3.8 0-2.56 1.17-4.32 1.17-1.75 3.15-2.65t4.45-.9q2.21 0 3.87.45 1.67.45 2.84 1.12 1.17.68 1.84 1.35v3.87h-.63q-1.12-1.3-3.19-2.23-2.07-.92-4.64-.92-2.11 0-3.49 1.01-1.37 1.02-1.37 2.91 0 1.75 1.22 3.01 1.21 1.26 2.92 2.34l5.04 3.15q1.53.95 2.79 2.12t2.03 2.7q.76 1.53.76 3.64" paint-order="stroke"></path><path fill="#ec0000" d="M25.04 23.618a19.532 19.532 0 1 0 0 39.064 19.532 19.532 0 1 0 0-39.064"></path><path fill="#07c100" d="M53.87 23.618a19.532 19.532 0 1 0 0 39.064 19.532 19.532 0 1 0 0-39.064"></path><path fill="#286cff" d="M39.72.318a19.532 19.532 0 1 0 0 39.064 19.532 19.532 0 1 0 0-39.064"></path></svg></svg>