<svg xmlns="http://www.w3.org/2000/svg" version="1.1" xmlns:xlink="http://www.w3.org/1999/xlink" viewBox="706 0 588 75"><svg xml:space="preserve" width="2000" height="75" data-version="2" data-id="lg_geJ7jiHmG1q4qe8VbB" viewBox="0 0 588 75" x="0" y="0"><rect width="100%" height="100%" fill="transparent"></rect><rect width="489" height="48.59" x="-244.5" y="-24.295" fill="none" rx="0" ry="0" transform="translate(338 37.3)"></rect><path fill="#272727" d="m102.2 19.99.43.04q.05 0 .13.09.09.08.13.11.04.02.13.15.09.12.11.19.02.06.1.24.86 1.54 5.08 9.67 1.42 2.49 2.19 4.15.78 1.66 1.51 3.16.73 1.51 1.29 2.58.56 1.08.73 1.08t.36-.2q.2-.19.43-.51.24-.33.41-.61t.39-.66q.21-.39 1.12-1.89.9-1.51 3.97-6.95 3.08-5.44 4.5-7.85l1.29-2.36q.38-.26 1.37-.28t1.25.28q.3 1.03.47 3.44.18 2.41.24 3.07.06.67 1.01 9.61Q132 47.9 132 48.86q0 .97-.34 1.23-.35.26-2.71.3-1.29 0-1.38-3.14 0-.56-.71-9.63t-.84-10.19q-.73 1.2-3.63 6.25-2.9 5.06-3.7 6.3-.79 1.25-2.04 3.38t-2.11 3.4q-.86 1.26-1.2 1.26t-.97-.96q-.62-.97-.97-1.79-.34-.81-2.43-4.96-2.08-4.15-4.45-8.75-2.36-4.61-2.58-5.08 0 .22-.62 6.17-.62 5.96-.84 8.41-.21 2.45-.6 6.88-.13 1.63-.54 2-.41.36-1.48.41-1.08.04-1.29-.09-.22-.13-.24-.6t.13-1.38q.15-.9.35-3.07.19-2.17 1.09-9.59.91-7.42 1.08-9.07.17-1.66.47-3.31.3-1.66.32-2.15.02-.5.76-.8.73-.3 1.67-.3m49.32 19.69-9.84.05q-1.59 0-1.85.25-.22.3-.22.99 0 3.36 1.92 5.14 1.91 1.79 4.36 1.79t3.83-.65q.04 0 .86-.56.81-.56 1.14-.56.32 0 .49.26t.17.52q0 1.63-2.4 2.77-2.41 1.14-5.62 1.14-3.2 0-6.1-2.58t-2.9-6.97q0-4.38 2.73-7.22t7.33-2.84q3.35 0 5.42 1.98 2.19 2.06 2.19 4.99 0 1.5-1.51 1.5m-11.18-2.1q8.17 0 9.46-.09-.13-1.72-1.31-2.84t-2.99-1.12q-1.8 0-3.37 1.27t-1.79 2.78m33.8-16.56v1.12l.04 17.16v8.72q0 .39-.02.52t-.04.43-.06.43q-.18.52-.28.6-.11.09-.24.17-.3.18-1.42.18t-1.5-.13q-.09-.22-.13-.78-.05-.56-.09-.73-.9.65-2.9 1.38t-3.59.73q-4 0-6.47-2.71-2.48-2.71-2.48-6.71 0-5.54 4.82-8.55 2.36-1.64 6.02-1.64.99 0 4.39.9l.04-1.89v-2.28q0-4.81.06-5.63.07-.82.07-1.59t.04-1.01.22-.58q.3-.52 1.37-.52 1.08 0 1.44.17.37.18.54.65.17.64.17 1.59m-14.92 19.44q0 3.48 1.81 5.44 1.8 1.95 4.9 1.95 1.55 0 2.58-.3 1.76-.56 1.76-1.55v-7.95q0-2.84-.26-3.14-.25-.43-1.57-.67-1.31-.23-2.6-.23-2.92 0-4.73 1.8-1.8 1.81-1.89 4.65m32.55 4.98.22-7.82v-2.24q0-1.8.28-2.73.28-.92 1.18-.92 1.5 0 2.15.21.26.35.26 2.28l.13 10.88.17 3.78q0 1.38-.35 1.42-.9.13-1.65.13t-1.03-.15-.37-.43-.13-.58l-.08-.6q-.05-.69-.22-.6-.52-.05-2.06 1.29-.61.56-1.9 1.01t-3.13.45q-1.85 0-3.29-.9-1.44-.91-2.13-2.45-1.21-2.84-1.21-6.37l.09-6.84.04-.77q0-.95.39-1.35.39-.41 1.59-.41t1.53.19q.32.19.32.97l-.09 6.28q0 4.94 1.04 6.58.47.73 1.39 1.24.93.52 2.22.52t2.96-.52q1.68-.51 1.68-1.55m35.17-25.75q2.02.04 4.94.77t2.92 1.27-.47 1.38q-.47.83-.69.92-.38 0-2.45-.56-2.79-.43-3.61-.43-3.91 0-6.11.86-1.67.6-3.16 1.79-1.48 1.18-2.38 2.32-.91 1.14-1.62 2.97-.7 1.82-.75 3.93 0 4.9 3.4 8.45t10.02 3.8q2.15 0 6.32-.81 1.55-.52 1.81-.52.34.13.58.63.23.49.23.96 0 1.03-3.07 2.17-3.08 1.14-6.65 1.23-4.9-.09-9.37-2.41-4.99-2.54-6.97-6.96-1.07-2.5-1.07-5.38 0-7.01 5.2-11.7 5.21-4.68 12.95-4.68m30.49 20.9q0 4.42-3.03 7.33-3.03 2.9-7.27 2.9-4.23 0-7.01-2.67-2.77-2.66-2.77-7.2t2.95-7.14q2.94-2.6 8.1-2.6 2.88 0 5.72 1.81 1.46.99 2.39 2.94.92 1.96.92 4.63m-9.72 7.05q2.71 0 4.37-1.96 1.65-1.96 1.65-4.84t-1.44-4.77-4.21-1.89-4.64 1.72-1.87 4.9 1.72 5.01 4.42 1.83m14.67-15.96 2.02-.04q0 .22.26 1.08l1.46-.52q2.84-.99 4.71-.99t3.29.58 2.19 1.46q.77.89 1.25 2.35.68 2.36.68 6.28l-.21 7.35q0 .86-.15.99t-1.21.13q-1.05 0-2.42-.18-.13-1.03-.13-3.61l.04-5.5q0-3.44-1.16-5.18t-3.98-1.74-4.28.81l.09 5.76q.04 3.87.04 6.02l.09 2.54q0 .69-.35.88-.34.2-1.46.2l-2.23-.09-.18-8.99.18-6.53v-1.55q0-1.51 1.46-1.51m18.69 16.52 1.55.17q1.72 0 3.1-.75 1.37-.76 1.37-2.18 0-.51-.19-1.09t-1.38-1.68q-1.18-1.1-2.17-2.51-.99-1.42-.99-3.19 0-1.72 1.55-3.61.73-.9 2.19-1.52 1.47-.63 2.86-.63 1.4 0 1.72.32.33.33.24.93l-.34 1.25q-.65-.18-1.49-.18t-1.74.67-.9 1.7.77 2.08q.78 1.06 1.72 1.83.95.78 1.72 2.11.78 1.33.78 2.88 0 2.97-2.63 4.49-2.62 1.53-6.23 1.53-.95 0-1.38-.37-.43-.36-.43-1.16 0-.79.3-1.09m27.02-2.76.21-7.82v-2.24q0-1.8.28-2.73.28-.92 1.18-.92 1.51 0 2.15.21.26.35.26 2.28l.13 10.88.17 3.78q0 1.38-.34 1.42-.9.13-1.66.13-.75 0-1.03-.15t-.36-.43q-.09-.28-.13-.58-.05-.3-.09-.6-.04-.69-.21-.6-.52-.05-2.07 1.29-.6.56-1.89 1.01t-3.14.45-3.29-.9q-1.44-.91-2.13-2.45-1.2-2.84-1.2-6.37l.08-6.84.05-.77q0-.95.38-1.35.39-.41 1.6-.41 1.2 0 1.52.19t.32.97l-.08 6.28q0 4.94 1.03 6.58.47.73 1.4 1.24.92.52 2.21.52t2.97-.52q1.68-.51 1.68-1.55m9.2-5.2v-4.51l-.09-8.78q0-.86.02-1.65.03-.8.03-1.4v-2.02q0-1.93.27-2.62.28-.69 1.68-.69t1.74.19q.35.2.35.88l.04 15.87.04 9.46q0 1.29.78 2.07.77.77 1.76.77t2-.24q1.01-.23 1.27-.23.56 0 .56.68 0 1.47-2.02 2.15-1.42.43-3.04.43-1.61 0-2.6-.55-.99-.56-1.52-1.38-.54-.82-.84-2.32-.43-2.11-.43-6.11m16.98-2.36-.08 6.19q0 1.76.6 2.69.6.92 2.02.92t2.41-.26q1.85-.51 1.85.52 0 2.88-5.33 2.88-3.01 0-4.69-2.71-.82-1.72-.82-4.08l.09-4.99.08-3.61q0-.61-.17-.76t-.64-.15l-1.68.13q-1.08 0-1.08-.69 0-1.2.28-1.69.28-.5 1.06-.5l1.67.13q.61 0 .61-1.46v-2.67q0-1.12.04-1.29.52-.26 3.4-.26.77 0 .77.82l-.13 4.73q.52.04 1.68.04l3.44-.25q.69 0 .69.81 0 2.37-2.33 2.37l-2.79-.17q-.69 0-.86.08-.09.78-.09 3.23m20.72 12.47q-1.29 0-1.2-1.42 0-.48-.13-.48-.35.13-1.38.74-5.12 3.13-8.99.38-1.76-1.24-1.76-3.44 0-3.31 3.07-4.81 3.08-1.51 7.64-1.51.81 0 1.2.04 0-.73.04-1.03 0-2.45-1.35-3.67-1.35-1.23-3.76-1.23-1.16 0-2.5.34-1.33.35-1.72.35-.38 0-.62-.47-.24-.48-.24-1.25 0-.78 1.92-1.23 1.91-.45 3.67-.45 4.17 0 6.35 2.19 2.17 2.2 2.17 6.41v8.86q0 1.16-.43 1.42t-1.98.26m-1.59-4.52q.08-1.2.08-2.58 0-1.37-.04-1.55-5.93.56-7.22 2.15-.69.82-.69 1.9 0 2.27 3.4 2.27 1.72 0 3.07-.79 1.36-.8 1.4-1.4m9.89-14.15 2.02-.04q0 .22.26 1.08.26-.09 1.46-.52 2.84-.99 4.71-.99t3.29.58 2.19 1.46q.77.89 1.25 2.35.69 2.36.69 6.28l-.22 7.35q0 .86-.15.99t-1.2.13q-1.06 0-2.43-.18-.13-1.03-.13-3.61l.04-5.5q0-3.44-1.16-5.18t-3.98-1.74q-2.81 0-4.28.81l.09 5.76q.04 3.87.04 6.02l.09 2.54q0 .69-.35.88-.34.2-1.46.2l-2.23-.09-.18-8.99.18-6.53v-1.55q0-1.51 1.46-1.51m35.01 15.66q.73 0 .73 1.03 0 2.45-6.36 2.45-2.71 0-4.82-.86t-3.27-2.24q-2.4-2.83-2.4-6.32 0-4.47 3.35-7.24 3.35-2.78 8.34-2.78t4.99 1.42q0 .99-.34 1.12-.35.13-.52.13h-.77q-5.12 0-7.96 1.48-2.84 1.49-2.84 5.1t2.17 5.48q2.18 1.87 6.09 1.87.9 0 2.06-.32t1.55-.32m12.04-4.26q.69-.69 1.16-1.63l.6-1.21q.18-.26 1.64-3.09 3.05-5.94 3.74-5.94.43 0 1.18.39t.84.69q0 .21-4.41 8.62-4.41 8.4-4.75 9.09-5.03 10.45-5.89 10.45-.69 0-1.51-.36-.81-.37-.9-.67 0-.26.65-1.68.47-.86 1.33-2.36 2.02-3.53 2.43-4.45.41-.93.86-1.68t.79-1.4q.35-.64.35-.86 0-.21-1.06-1.59-1.05-1.37-2.08-2.86-1.03-1.48-2.28-3.33t-1.59-2.37l-.99-1.5q-1.42-2.11-1.42-2.6 0-.5.99-1.01.99-.52 1.46-.52.48 0 1.29.84.82.84 1.89 2.37 1.08 1.52 1.98 2.9.91 1.37 2.07 3.22t1.63 2.54m32.55-19.91q-1.42-.47-3.42-.47t-3.59 1.01-1.59 2.88 1.12 3.25q1.12 1.37 2.71 2.51t3.16 2.41 2.69 3.16q1.11 1.89 1.11 4.26 0 2.36-1.97 4.77-3.23 3.87-10.67 3.87-1.03 0-1.83-.11-.79-.11-1.22-.15t-.9-.13q-1.04-.17-1.04-.51 0-2.28.82-2.8 1.76.56 3.61.56 8.95 0 8.95-5.12 0-2.66-3.79-5.46-1.59-1.16-3.16-2.41-1.57-1.24-2.68-3.11-1.12-1.87-1.12-4.11 0-3.4 2.94-5.59 2.95-2.19 6.9-2.19.86 0 2.3.19 1.45.19 1.55.5.11.3.11.68 0 .39-.26 1.14-.26.76-.73.97m21.2 16.51-9.85.05q-1.59 0-1.85.25-.21.3-.21.99 0 3.36 1.91 5.14 1.92 1.79 4.37 1.79t3.82-.65q.05 0 .86-.56.82-.56 1.14-.56.33 0 .5.26t.17.52q0 1.63-2.41 2.77t-5.61 1.14-6.11-2.58q-2.9-2.58-2.9-6.97 0-4.38 2.73-7.22t7.33-2.84q3.36 0 5.42 1.98 2.2 2.06 2.2 4.99 0 1.5-1.51 1.5m-11.18-2.1q8.17 0 9.46-.09-.13-1.72-1.31-2.84t-2.99-1.12-3.38 1.27q-1.56 1.27-1.78 2.78m16.04 8.17.3-9.55q.04-.34.04-1.2t.07-1.29q.06-.43.19-1.04.26-1.07 1.25-1.07 2.15 0 2.15.94 0 .74.04 1.04.26 0 2.5-1.16 2.23-1.17 3.82-1.17.65 0 .88.33.24.32.24 1.48t-.3 1.76q-.26.05-.93.13-.66.09-.98.13-.33.04-.93.15t-.94.17q-.35.07-.84.18-.5.1-.82.23t-.67.26q-.68.26-.94.69v2.79l.08 7.31v1.36q0 .54-.02.88t-.19.69q-.35.56-1.79.56t-1.69-.18q-.52-.34-.52-4.42"></path><path fill="#272727" d="M489.85 44.97q.81-1.07 1.5-2.43.69-1.35 2.54-5.35t2.79-5.81q.13-.17.52-.17t1.01.35q.62.34.75.6.05.3-.86 2.28-3.35 7.91-7.13 14.44l-.35.65q-.77 1.29-1.29 1.29-.99 0-1.89-1.63-4.09-8-5.05-10.13-.97-2.13-1.53-3.12-1.33-2.45-1.33-3.35 0-.43 1.07-.91 1.08-.47 1.49-.47h.62q.21 0 .62.58t.86 1.57.86 1.74q.41.76 2.07 4.45 1.65 3.7 2.73 5.42m12.38-19.39q-.43-.13-1.01-.88-.58-.76-.56-1.42.02-.67.86-1.38t2.17-.71q1.98 0 1.98 1.89 0 1.34-.84 1.98-.84.65-1.5.65-.67 0-1.1-.13m2.67 9.2v6.19l.13 8.52q0 .51-.13.64-.43.22-1.81.22-1.37 0-1.7-.2-.32-.19-.32-1.18l-.17-7.87q0-4.13.04-5.24l.13-2.54q0-1.21.39-1.42.38-.22 1.48-.22t1.87.13q.09 1.9.09 2.97m19.38 12.56q.73 0 .73 1.03 0 2.45-6.36 2.45-2.71 0-4.82-.86t-3.27-2.24q-2.4-2.83-2.4-6.32 0-4.47 3.35-7.24 3.35-2.78 8.34-2.78t4.99 1.42q0 .99-.34 1.12-.35.13-.52.13h-.77q-5.12 0-7.96 1.48-2.84 1.49-2.84 5.1t2.17 5.48q2.18 1.87 6.09 1.87.9 0 2.06-.32t1.55-.32m18.32-7.66-9.85.05q-1.59 0-1.85.25-.21.3-.21.99 0 3.36 1.91 5.14 1.91 1.79 4.37 1.79 2.45 0 3.82-.65.05 0 .86-.56.82-.56 1.14-.56t.5.26q.17.26.17.52 0 1.63-2.41 2.77t-5.61 1.14-6.11-2.58q-2.9-2.58-2.9-6.97 0-4.38 2.73-7.22t7.33-2.84q3.36 0 5.42 1.98 2.19 2.06 2.19 4.99 0 1.5-1.5 1.5m-11.18-2.1q8.17 0 9.46-.09-.13-1.72-1.31-2.84-1.19-1.12-2.99-1.12-1.81 0-3.38 1.27t-1.78 2.78m14.46 10.62 1.54.17q1.72 0 3.1-.75 1.38-.76 1.38-2.18 0-.51-.2-1.09-.19-.58-1.37-1.68-1.19-1.1-2.17-2.51-.99-1.42-.99-3.19 0-1.72 1.54-3.61.74-.9 2.2-1.52 1.46-.63 2.86-.63 1.39 0 1.72.32.32.33.23.93l-.34 1.25q-.65-.18-1.48-.18-.84 0-1.75.67-.9.67-.9 1.7t.78 2.08q.77 1.06 1.72 1.83.94.78 1.72 2.11.77 1.33.77 2.88 0 2.97-2.62 4.49-2.63 1.53-6.24 1.53-.94 0-1.37-.37-.43-.36-.43-1.16 0-.79.3-1.09"></path><path fill="#3d9970" d="M30.73 26.54a33.798 16.348-45 1 0 23.12 23.12 33.798 16.348-45 1 0-23.12-23.12"></path><path fill="#ffdc00" d="M26.11 37.52a17 35.145 0 1 0 34 0 17 35.145 0 1 0-34 0"></path><path fill="#0074d9" d="M30.8 49.522A17 35.145-45 1 0 54.84 25.48 17 35.145-45 1 0 30.8 49.522"></path></svg></svg>
